<mxfile host="app.diagrams.net" modified="2022-08-23T04:47:16.654Z" agent="5.0 (Windows NT 10.0; Win64; x64) AppleWebKit/537.36 (KHTML, like Gecko) Chrome/104.0.0.0 Safari/537.36" etag="FNPFA4cWg2C2XBh-P2tS" version="20.0.4" type="github">
  <diagram id="p3bcoX_zDifybAXSMWaD" name="Page-1">
    <mxGraphModel dx="1406" dy="792" grid="1" gridSize="10" guides="1" tooltips="1" connect="1" arrows="1" fold="1" page="1" pageScale="1" pageWidth="850" pageHeight="1100" math="0" shadow="0">
      <root>
        <mxCell id="0" />
        <mxCell id="1" parent="0" />
        <mxCell id="kV20wIMNOrEjRqIksJpt-13" value="" style="edgeStyle=orthogonalEdgeStyle;rounded=0;orthogonalLoop=1;jettySize=auto;html=1;fontSize=14;" edge="1" parent="1" source="kV20wIMNOrEjRqIksJpt-1" target="kV20wIMNOrEjRqIksJpt-2">
          <mxGeometry relative="1" as="geometry" />
        </mxCell>
        <mxCell id="kV20wIMNOrEjRqIksJpt-1" value="Customer Visits Journey page and clicks &quot;start&quot;" style="ellipse;whiteSpace=wrap;html=1;" vertex="1" parent="1">
          <mxGeometry x="20" y="70" width="180" height="90" as="geometry" />
        </mxCell>
        <mxCell id="kV20wIMNOrEjRqIksJpt-14" value="" style="edgeStyle=orthogonalEdgeStyle;rounded=0;orthogonalLoop=1;jettySize=auto;html=1;fontSize=14;" edge="1" parent="1" source="kV20wIMNOrEjRqIksJpt-2" target="kV20wIMNOrEjRqIksJpt-3">
          <mxGeometry relative="1" as="geometry" />
        </mxCell>
        <mxCell id="kV20wIMNOrEjRqIksJpt-2" value="List of all available Job opportunities." style="rounded=0;whiteSpace=wrap;html=1;" vertex="1" parent="1">
          <mxGeometry x="290" y="85" width="147.5" height="60" as="geometry" />
        </mxCell>
        <mxCell id="kV20wIMNOrEjRqIksJpt-15" value="" style="edgeStyle=orthogonalEdgeStyle;rounded=0;orthogonalLoop=1;jettySize=auto;html=1;fontSize=14;" edge="1" parent="1" source="kV20wIMNOrEjRqIksJpt-3" target="kV20wIMNOrEjRqIksJpt-4">
          <mxGeometry relative="1" as="geometry" />
        </mxCell>
        <mxCell id="kV20wIMNOrEjRqIksJpt-3" value="Customer Clicks on one of job title he/she want to &quot;Apply&quot;." style="rounded=1;whiteSpace=wrap;html=1;" vertex="1" parent="1">
          <mxGeometry x="565" y="85" width="160" height="60" as="geometry" />
        </mxCell>
        <mxCell id="kV20wIMNOrEjRqIksJpt-16" style="edgeStyle=orthogonalEdgeStyle;rounded=0;orthogonalLoop=1;jettySize=auto;html=1;fontSize=14;entryX=1;entryY=0.5;entryDx=0;entryDy=0;" edge="1" parent="1" source="kV20wIMNOrEjRqIksJpt-4" target="kV20wIMNOrEjRqIksJpt-6">
          <mxGeometry relative="1" as="geometry">
            <mxPoint x="450" y="295" as="targetPoint" />
          </mxGeometry>
        </mxCell>
        <mxCell id="kV20wIMNOrEjRqIksJpt-35" value="Yes" style="edgeLabel;html=1;align=center;verticalAlign=middle;resizable=0;points=[];fontSize=14;" vertex="1" connectable="0" parent="kV20wIMNOrEjRqIksJpt-16">
          <mxGeometry x="-0.3333" y="3" relative="1" as="geometry">
            <mxPoint x="23" y="-3" as="offset" />
          </mxGeometry>
        </mxCell>
        <mxCell id="kV20wIMNOrEjRqIksJpt-23" value="" style="edgeStyle=orthogonalEdgeStyle;rounded=0;orthogonalLoop=1;jettySize=auto;html=1;fontSize=14;" edge="1" parent="1" source="kV20wIMNOrEjRqIksJpt-4" target="kV20wIMNOrEjRqIksJpt-22">
          <mxGeometry relative="1" as="geometry" />
        </mxCell>
        <mxCell id="kV20wIMNOrEjRqIksJpt-36" value="No" style="edgeLabel;html=1;align=center;verticalAlign=middle;resizable=0;points=[];fontSize=14;" vertex="1" connectable="0" parent="kV20wIMNOrEjRqIksJpt-23">
          <mxGeometry x="-0.2667" y="1" relative="1" as="geometry">
            <mxPoint x="-1" y="-19" as="offset" />
          </mxGeometry>
        </mxCell>
        <mxCell id="kV20wIMNOrEjRqIksJpt-4" value="Is Jobseeker is &lt;br&gt;&quot;Persona 1&quot;?" style="rhombus;whiteSpace=wrap;html=1;" vertex="1" parent="1">
          <mxGeometry x="580" y="240" width="130" height="110" as="geometry" />
        </mxCell>
        <mxCell id="kV20wIMNOrEjRqIksJpt-17" style="edgeStyle=orthogonalEdgeStyle;rounded=0;orthogonalLoop=1;jettySize=auto;html=1;entryX=1;entryY=0.5;entryDx=0;entryDy=0;fontSize=14;" edge="1" parent="1" source="kV20wIMNOrEjRqIksJpt-6" target="kV20wIMNOrEjRqIksJpt-8">
          <mxGeometry relative="1" as="geometry" />
        </mxCell>
        <mxCell id="kV20wIMNOrEjRqIksJpt-37" value="Yes" style="edgeLabel;html=1;align=center;verticalAlign=middle;resizable=0;points=[];fontSize=14;" vertex="1" connectable="0" parent="kV20wIMNOrEjRqIksJpt-17">
          <mxGeometry x="-0.2278" y="3" relative="1" as="geometry">
            <mxPoint x="26" y="-3" as="offset" />
          </mxGeometry>
        </mxCell>
        <mxCell id="kV20wIMNOrEjRqIksJpt-38" style="edgeStyle=orthogonalEdgeStyle;rounded=0;orthogonalLoop=1;jettySize=auto;html=1;fontSize=14;exitX=0.5;exitY=1;exitDx=0;exitDy=0;" edge="1" parent="1" source="kV20wIMNOrEjRqIksJpt-6" target="kV20wIMNOrEjRqIksJpt-9">
          <mxGeometry relative="1" as="geometry" />
        </mxCell>
        <mxCell id="kV20wIMNOrEjRqIksJpt-6" value="Is Jobseeker new &quot;Registration&quot;?" style="rhombus;whiteSpace=wrap;html=1;fontSize=14;" vertex="1" parent="1">
          <mxGeometry x="270" y="210" width="137.5" height="120" as="geometry" />
        </mxCell>
        <mxCell id="kV20wIMNOrEjRqIksJpt-45" value="" style="edgeStyle=orthogonalEdgeStyle;rounded=0;orthogonalLoop=1;jettySize=auto;html=1;fontSize=14;" edge="1" parent="1" source="kV20wIMNOrEjRqIksJpt-8" target="kV20wIMNOrEjRqIksJpt-42">
          <mxGeometry relative="1" as="geometry" />
        </mxCell>
        <mxCell id="kV20wIMNOrEjRqIksJpt-8" value="Show &quot;CV Builder&quot; Page" style="rounded=0;whiteSpace=wrap;html=1;fontSize=14;" vertex="1" parent="1">
          <mxGeometry x="20" y="240" width="120" height="60" as="geometry" />
        </mxCell>
        <mxCell id="kV20wIMNOrEjRqIksJpt-19" style="edgeStyle=orthogonalEdgeStyle;rounded=0;orthogonalLoop=1;jettySize=auto;html=1;entryX=0.5;entryY=0;entryDx=0;entryDy=0;fontSize=14;" edge="1" parent="1" source="kV20wIMNOrEjRqIksJpt-9" target="kV20wIMNOrEjRqIksJpt-10">
          <mxGeometry relative="1" as="geometry" />
        </mxCell>
        <mxCell id="kV20wIMNOrEjRqIksJpt-9" value="Show Job details Page ?" style="rounded=0;whiteSpace=wrap;html=1;fontSize=14;" vertex="1" parent="1">
          <mxGeometry x="425" y="390" width="120" height="60" as="geometry" />
        </mxCell>
        <mxCell id="kV20wIMNOrEjRqIksJpt-20" style="edgeStyle=orthogonalEdgeStyle;rounded=0;orthogonalLoop=1;jettySize=auto;html=1;fontSize=14;exitX=0.5;exitY=1;exitDx=0;exitDy=0;" edge="1" parent="1" source="kV20wIMNOrEjRqIksJpt-10" target="kV20wIMNOrEjRqIksJpt-11">
          <mxGeometry relative="1" as="geometry" />
        </mxCell>
        <mxCell id="kV20wIMNOrEjRqIksJpt-40" value="Yes" style="edgeLabel;html=1;align=center;verticalAlign=middle;resizable=0;points=[];fontSize=14;" vertex="1" connectable="0" parent="kV20wIMNOrEjRqIksJpt-20">
          <mxGeometry x="-0.2338" relative="1" as="geometry">
            <mxPoint x="36" y="-20" as="offset" />
          </mxGeometry>
        </mxCell>
        <mxCell id="kV20wIMNOrEjRqIksJpt-21" style="edgeStyle=orthogonalEdgeStyle;rounded=0;orthogonalLoop=1;jettySize=auto;html=1;fontSize=14;" edge="1" parent="1" source="kV20wIMNOrEjRqIksJpt-10" target="kV20wIMNOrEjRqIksJpt-12">
          <mxGeometry relative="1" as="geometry" />
        </mxCell>
        <mxCell id="kV20wIMNOrEjRqIksJpt-41" value="No" style="edgeLabel;html=1;align=center;verticalAlign=middle;resizable=0;points=[];fontSize=14;" vertex="1" connectable="0" parent="kV20wIMNOrEjRqIksJpt-21">
          <mxGeometry x="-0.0208" y="1" relative="1" as="geometry">
            <mxPoint x="-175" y="-149" as="offset" />
          </mxGeometry>
        </mxCell>
        <mxCell id="kV20wIMNOrEjRqIksJpt-47" value="No" style="edgeLabel;html=1;align=center;verticalAlign=middle;resizable=0;points=[];fontSize=14;" vertex="1" connectable="0" parent="kV20wIMNOrEjRqIksJpt-21">
          <mxGeometry x="-0.5587" y="3" relative="1" as="geometry">
            <mxPoint x="-48" y="3" as="offset" />
          </mxGeometry>
        </mxCell>
        <mxCell id="kV20wIMNOrEjRqIksJpt-10" value="Is Assessment Complete ?" style="rhombus;whiteSpace=wrap;html=1;fontSize=14;" vertex="1" parent="1">
          <mxGeometry x="220" y="430" width="137.5" height="120" as="geometry" />
        </mxCell>
        <mxCell id="kV20wIMNOrEjRqIksJpt-34" value="" style="edgeStyle=orthogonalEdgeStyle;rounded=0;orthogonalLoop=1;jettySize=auto;html=1;fontSize=14;" edge="1" parent="1" source="kV20wIMNOrEjRqIksJpt-11" target="kV20wIMNOrEjRqIksJpt-32">
          <mxGeometry relative="1" as="geometry" />
        </mxCell>
        <mxCell id="kV20wIMNOrEjRqIksJpt-11" value="Show button to &quot;Apply&quot;" style="rounded=1;whiteSpace=wrap;html=1;fontSize=14;" vertex="1" parent="1">
          <mxGeometry x="100" y="630" width="120" height="60" as="geometry" />
        </mxCell>
        <mxCell id="kV20wIMNOrEjRqIksJpt-31" value="" style="edgeStyle=orthogonalEdgeStyle;rounded=0;orthogonalLoop=1;jettySize=auto;html=1;fontSize=14;" edge="1" parent="1" source="kV20wIMNOrEjRqIksJpt-12" target="kV20wIMNOrEjRqIksJpt-27">
          <mxGeometry relative="1" as="geometry" />
        </mxCell>
        <mxCell id="kV20wIMNOrEjRqIksJpt-12" value="Show button to &quot;Assessment&quot;" style="rounded=1;whiteSpace=wrap;html=1;fontSize=14;" vertex="1" parent="1">
          <mxGeometry x="480" y="630" width="120" height="60" as="geometry" />
        </mxCell>
        <mxCell id="kV20wIMNOrEjRqIksJpt-25" style="edgeStyle=orthogonalEdgeStyle;rounded=0;orthogonalLoop=1;jettySize=auto;html=1;entryX=0.567;entryY=0.025;entryDx=0;entryDy=0;entryPerimeter=0;fontSize=14;exitX=1;exitY=0.5;exitDx=0;exitDy=0;" edge="1" parent="1" source="kV20wIMNOrEjRqIksJpt-22" target="kV20wIMNOrEjRqIksJpt-24">
          <mxGeometry relative="1" as="geometry" />
        </mxCell>
        <mxCell id="kV20wIMNOrEjRqIksJpt-22" value="Show service Ineligible Page" style="rounded=0;whiteSpace=wrap;html=1;fontSize=14;" vertex="1" parent="1">
          <mxGeometry x="585" y="430" width="120" height="60" as="geometry" />
        </mxCell>
        <mxCell id="kV20wIMNOrEjRqIksJpt-24" value="End" style="ellipse;whiteSpace=wrap;html=1;fontSize=14;" vertex="1" parent="1">
          <mxGeometry x="690" y="710" width="120" height="80" as="geometry" />
        </mxCell>
        <mxCell id="kV20wIMNOrEjRqIksJpt-43" value="" style="edgeStyle=orthogonalEdgeStyle;rounded=0;orthogonalLoop=1;jettySize=auto;html=1;fontSize=14;" edge="1" parent="1" source="kV20wIMNOrEjRqIksJpt-27" target="kV20wIMNOrEjRqIksJpt-29">
          <mxGeometry relative="1" as="geometry" />
        </mxCell>
        <mxCell id="kV20wIMNOrEjRqIksJpt-27" value="Click on Assessment to open Assessment Window" style="rounded=1;whiteSpace=wrap;html=1;fontSize=14;" vertex="1" parent="1">
          <mxGeometry x="450" y="730" width="180" height="70" as="geometry" />
        </mxCell>
        <mxCell id="kV20wIMNOrEjRqIksJpt-30" style="edgeStyle=orthogonalEdgeStyle;rounded=0;orthogonalLoop=1;jettySize=auto;html=1;entryX=1;entryY=0.5;entryDx=0;entryDy=0;fontSize=14;exitX=1.021;exitY=0.648;exitDx=0;exitDy=0;exitPerimeter=0;" edge="1" parent="1" source="kV20wIMNOrEjRqIksJpt-29" target="kV20wIMNOrEjRqIksJpt-24">
          <mxGeometry relative="1" as="geometry">
            <Array as="points">
              <mxPoint x="840" y="985" />
              <mxPoint x="840" y="750" />
            </Array>
          </mxGeometry>
        </mxCell>
        <mxCell id="kV20wIMNOrEjRqIksJpt-29" value="Open ADSG Assessment page to complete assessment &amp;amp; Visit Apply page again" style="rounded=0;whiteSpace=wrap;html=1;fontSize=14;" vertex="1" parent="1">
          <mxGeometry x="335" y="940" width="210" height="70" as="geometry" />
        </mxCell>
        <mxCell id="kV20wIMNOrEjRqIksJpt-33" style="edgeStyle=orthogonalEdgeStyle;rounded=0;orthogonalLoop=1;jettySize=auto;html=1;entryX=0.5;entryY=1;entryDx=0;entryDy=0;fontSize=14;" edge="1" parent="1" source="kV20wIMNOrEjRqIksJpt-32" target="kV20wIMNOrEjRqIksJpt-24">
          <mxGeometry relative="1" as="geometry">
            <Array as="points">
              <mxPoint x="250" y="850" />
              <mxPoint x="750" y="850" />
            </Array>
          </mxGeometry>
        </mxCell>
        <mxCell id="kV20wIMNOrEjRqIksJpt-32" value="Application is submitted and show Success message." style="rounded=0;whiteSpace=wrap;html=1;fontSize=14;" vertex="1" parent="1">
          <mxGeometry x="70" y="770" width="180" height="70" as="geometry" />
        </mxCell>
        <mxCell id="kV20wIMNOrEjRqIksJpt-46" style="edgeStyle=orthogonalEdgeStyle;rounded=0;orthogonalLoop=1;jettySize=auto;html=1;fontSize=14;entryX=0;entryY=0.5;entryDx=0;entryDy=0;" edge="1" parent="1" source="kV20wIMNOrEjRqIksJpt-42" target="kV20wIMNOrEjRqIksJpt-10">
          <mxGeometry relative="1" as="geometry" />
        </mxCell>
        <mxCell id="kV20wIMNOrEjRqIksJpt-42" value="Complete CV Profile and proceed to Assessment" style="rounded=1;whiteSpace=wrap;html=1;fontSize=14;" vertex="1" parent="1">
          <mxGeometry x="10" y="440" width="140" height="60" as="geometry" />
        </mxCell>
      </root>
    </mxGraphModel>
  </diagram>
</mxfile>
